<svg viewBox="0 0 1280 640" xmlns="http://www.w3.org/2000/svg" role="img" aria-label="SpexCode — spec-driven orchestration for your coding agents">
  <defs>
    <linearGradient id="g-field" x1="0.04" y1="0" x2="0.96" y2="1">
      <stop offset="0" stop-color="#181D24"/><stop offset="1" stop-color="#0F1319"/>
    </linearGradient>
  <clipPath id="mk-c"><path d="M 186.0,186.0 L 256.0,186.0 L 326.0,256.0 L 326.0,326.0 L 186.0,326.0 Z"/></clipPath><linearGradient id="mk-new" gradientUnits="userSpaceOnUse" x1="256" y1="256" x2="291.4" y2="220.6"><stop offset="0" stop-color="#A6DEEE"/><stop offset="1" stop-color="#5FA8BE"/></linearGradient><linearGradient id="mk-old" gradientUnits="userSpaceOnUse" x1="256" y1="256" x2="186.0" y2="326.0"><stop offset="0" stop-color="#3D8CA4"/><stop offset="1" stop-color="#276F86"/></linearGradient></defs>
  <rect width="1280" height="640" fill="url(#g-field)"/>
<g transform="translate(528.0,96) scale(0.43750)"><path d="M 96,96 L 208,96 L 208,142 L 142,142 L 142,370 L 208,370 L 208,416 L 96,416 Z" fill="#EFE8D8"/><path d="M 416,96 L 304,96 L 304,142 L 370,142 L 370,370 L 304,370 L 304,416 L 416,416 Z" fill="#EFE8D8"/><g clip-path="url(#mk-c)"><path d="M 326.0,326.0 L 250.3,278.5 L 261.7,233.5 L 186.0,186.0 L 186.0,326.0 Z" fill="url(#mk-old)"/><path d="M 186.0,186.0 L 261.7,233.5 L 250.3,278.5 L 326.0,326.0 L 326.0,256.0 L 256.0,186.0 Z" fill="url(#mk-new)"/><path d="M 186.0,186.0 L 261.7,233.5 L 250.3,278.5 L 326.0,326.0" fill="none" stroke="#E4F7FD" stroke-width="12" stroke-linejoin="round" stroke-linecap="butt"/></g></g>
  <g transform="translate(328.6,485)"><path d="M80.12400000000001 -66.924C79.992 -86.85600000000001 66.66 -97.812 42.372 -97.812C19.272000000000002 -97.812 5.94 -86.988 5.94 -68.244C5.94 -53.328 13.464 -46.068000000000005 33.0 -42.372L46.464 -39.732C59.664 -37.224000000000004 64.548 -33.528 64.548 -25.740000000000002C64.548 -17.688000000000002 57.156000000000006 -12.804 45.144000000000005 -12.804C31.68 -12.804 24.156000000000002 -18.48 23.496000000000002 -28.776H4.224C5.412 -8.184000000000001 19.536 3.036 44.088 3.036C68.904 3.036 83.556 -8.448 83.556 -28.116C83.556 -43.296 75.9 -51.216 58.080000000000005 -54.648L43.032000000000004 -57.552C28.908 -60.324000000000005 24.816000000000003 -63.096000000000004 24.816000000000003 -70.092C24.816000000000003 -77.352 31.152 -81.97200000000001 41.448 -81.97200000000001C53.988 -81.97200000000001 60.984 -76.69200000000001 61.644000000000005 -66.924Z M111.12400000000002 -71.28H92.64400000000002V28.776H111.12400000000002V-8.448C115.61200000000002 -0.528 121.94800000000001 3.168 130.924 3.168C148.084 3.168 160.75600000000003 -12.936 160.75600000000003 -34.584C160.75600000000003 -44.616 157.85200000000003 -54.648 153.10000000000002 -61.248000000000005C148.348 -67.98 139.50400000000002 -72.468 130.924 -72.468C121.94800000000001 -72.468 115.61200000000002 -68.64 111.12400000000002 -60.720000000000006ZM126.70000000000002 -57.024C136.072 -57.024 142.276 -48.048 142.276 -34.32C142.276 -21.252000000000002 135.94000000000003 -12.276 126.70000000000002 -12.276C117.32800000000002 -12.276 111.12400000000002 -21.252000000000002 111.12400000000002 -34.584C111.12400000000002 -48.048 117.32800000000002 -57.024 126.70000000000002 -57.024Z M232.80800000000002 -29.832C232.94 -31.416 232.94 -32.076 232.94 -33.0C232.94 -40.128 231.88400000000001 -46.728 230.168 -51.744C225.41600000000003 -64.68 213.93200000000002 -72.468 199.544 -72.468C179.084 -72.468 166.544 -57.684000000000005 166.544 -33.792C166.544 -10.956000000000001 178.95200000000003 3.036 199.14800000000002 3.036C215.12 3.036 228.056 -5.94 232.14800000000002 -20.064H213.93200000000002C211.68800000000002 -14.388 206.54000000000002 -11.088000000000001 199.80800000000002 -11.088000000000001C194.52800000000002 -11.088000000000001 190.30400000000003 -13.332 187.66400000000002 -17.292C185.948 -19.932000000000002 185.288 -23.1 185.024 -29.832ZM185.288 -42.108000000000004C186.47600000000003 -53.064 191.096 -58.344 199.28000000000003 -58.344C207.728 -58.344 212.74400000000003 -52.668 213.668 -42.108000000000004Z M280.04400000000004 -35.904 303.276 -71.28H281.1L269.61600000000004 -49.764L258.0 -71.28H235.824L259.05600000000004 -35.904L235.29600000000002 0.0H257.47200000000004L269.61600000000004 -22.176000000000002L281.62800000000004 0.0H303.80400000000003Z M391.168 -63.624C390.50800000000004 -71.94 388.79200000000003 -77.22 384.7 -82.632C377.308 -92.4 365.428 -97.812 351.04 -97.812C323.848 -97.812 306.952 -78.408 306.952 -47.256C306.952 -16.236 323.716 3.036 350.512 3.036C374.536 3.036 390.376 -10.824 391.564 -32.868H372.29200000000003C370.972 -20.592000000000002 363.31600000000003 -13.596 351.04 -13.596C335.728 -13.596 326.752 -26.004 326.752 -46.992000000000004C326.752 -68.244 336.124 -80.916 351.7 -80.916C363.184 -80.916 369.65200000000004 -75.372 372.29200000000003 -63.624Z M432.596 -72.468C410.816 -72.468 397.484 -58.080000000000005 397.484 -34.716C397.484 -11.22 410.816 3.036 432.72799999999995 3.036C454.508 3.036 467.972 -11.22 467.972 -34.188C467.972 -58.344 454.904 -72.468 432.596 -72.468ZM432.72799999999995 -57.552C442.892 -57.552 449.49199999999996 -48.444 449.49199999999996 -34.452C449.49199999999996 -21.12 442.628 -11.88 432.72799999999995 -11.88C422.69599999999997 -11.88 415.964 -20.988 415.964 -34.716C415.964 -48.444 422.69599999999997 -57.552 432.72799999999995 -57.552Z M524.184 0.0H542.664V-96.22800000000001H524.184V-62.040000000000006C519.564 -69.168 513.492 -72.468 504.51599999999996 -72.468C487.488 -72.468 474.55199999999996 -56.1 474.55199999999996 -34.584C474.55199999999996 -24.948 477.456 -15.180000000000001 482.20799999999997 -8.316C487.092 -1.32 495.804 3.036 504.51599999999996 3.036C513.492 3.036 519.564 -0.132 524.184 -7.260000000000001ZM508.608 -57.024C517.98 -57.024 524.184 -48.048 524.184 -34.32C524.184 -21.384 517.848 -12.408000000000001 508.608 -12.408000000000001C499.368 -12.408000000000001 493.032 -21.516000000000002 493.032 -34.584C493.032 -47.916000000000004 499.368 -57.024 508.608 -57.024Z M618.544 -29.832C618.6759999999999 -31.416 618.6759999999999 -32.076 618.6759999999999 -33.0C618.6759999999999 -40.128 617.62 -46.728 615.904 -51.744C611.1519999999999 -64.68 599.668 -72.468 585.28 -72.468C564.8199999999999 -72.468 552.28 -57.684000000000005 552.28 -33.792C552.28 -10.956000000000001 564.688 3.036 584.884 3.036C600.856 3.036 613.7919999999999 -5.94 617.884 -20.064H599.668C597.424 -14.388 592.276 -11.088000000000001 585.544 -11.088000000000001C580.264 -11.088000000000001 576.04 -13.332 573.4 -17.292C571.684 -19.932000000000002 571.024 -23.1 570.76 -29.832ZM571.024 -42.108000000000004C572.212 -53.064 576.832 -58.344 585.016 -58.344C593.4639999999999 -58.344 598.48 -52.668 599.404 -42.108000000000004Z" fill="#EFE8D8"/></g>
  <g transform="translate(245.7,541)"><path d="M14.3203125 -4.697265625Q14.3203125 -2.361328125 12.61279296875 -1.0537109375Q10.9052734375 0.25390625 7.744140625 0.25390625Q1.9423828125 0.25390625 1.0029296875 -4.291015625L3.3515625 -4.7607421875Q3.70703125 -3.123046875 4.82421875 -2.38037109375Q5.94140625 -1.6376953125 7.8076171875 -1.6376953125Q9.826171875 -1.6376953125 10.87353515625 -2.4248046875Q11.9208984375 -3.2119140625 11.9208984375 -4.6591796875Q11.9208984375 -5.5478515625 11.50830078125 -6.1064453125Q11.095703125 -6.6650390625 10.4228515625 -7.0205078125Q9.75 -7.3759765625 8.90576171875 -7.59814453125Q8.0615234375 -7.8203125 7.1982421875 -8.0361328125Q5.154296875 -8.5693359375 4.28466796875 -8.98828125Q3.4150390625 -9.4072265625 2.89453125 -9.94677734375Q2.3740234375 -10.486328125 2.107421875 -11.1845703125Q1.8408203125 -11.8828125 1.8408203125 -12.822265625Q1.8408203125 -15.0185546875 3.38330078125 -16.20556640625Q4.92578125 -17.392578125 7.8076171875 -17.392578125Q10.4990234375 -17.392578125 11.9208984375 -16.453125Q13.3427734375 -15.513671875 13.9013671875 -13.279296875L11.5146484375 -12.8603515625Q11.2099609375 -14.2822265625 10.2958984375 -14.92333984375Q9.3818359375 -15.564453125 7.794921875 -15.564453125Q4.2021484375 -15.564453125 4.2021484375 -12.8603515625Q4.2021484375 -12.0986328125 4.53857421875 -11.62255859375Q4.875 -11.146484375 5.45263671875 -10.83544921875Q6.0302734375 -10.5244140625 6.79833984375 -10.3212890625Q7.56640625 -10.1181640625 8.4423828125 -9.8896484375Q10.20703125 -9.4453125 10.9814453125 -9.14697265625Q11.755859375 -8.8486328125 12.35888671875 -8.4677734375Q12.9619140625 -8.0869140625 13.3935546875 -7.56640625Q13.8251953125 -7.0458984375 14.07275390625 -6.34765625Q14.3203125 -5.6494140625 14.3203125 -4.697265625Z M29.9404296875 -6.931640625Q29.9404296875 0.25390625 24.9638671875 0.25390625Q21.8408203125 0.25390625 20.76171875 -2.08203125H20.6982421875Q20.7490234375 -1.98046875 20.7490234375 0.025390625V5.3955078125H18.451171875V-10.892578125Q18.451171875 -13.05078125 18.375 -13.736328125H20.5966796875Q20.609375 -13.685546875 20.634765625 -13.36181640625Q20.66015625 -13.0380859375 20.69189453125 -12.40966796875Q20.7236328125 -11.78125 20.7236328125 -11.4765625H20.7744140625Q21.4091796875 -12.8095703125 22.39306640625 -13.41259765625Q23.376953125 -14.015625 24.9638671875 -14.015625Q27.4775390625 -14.015625 28.708984375 -12.28271484375Q29.9404296875 -10.5498046875 29.9404296875 -6.931640625ZM27.5791015625 -6.931640625Q27.5791015625 -9.80078125 26.8046875 -11.02587890625Q26.0302734375 -12.2509765625 24.3671875 -12.2509765625Q22.4501953125 -12.2509765625 21.599609375 -10.86083984375Q20.7490234375 -9.470703125 20.7490234375 -6.65234375Q20.7490234375 -3.9482421875 21.599609375 -2.69140625Q22.4501953125 -1.4345703125 24.341796875 -1.4345703125Q26.0302734375 -1.4345703125 26.8046875 -2.716796875Q27.5791015625 -3.9990234375 27.5791015625 -6.931640625Z M36.29296875 -6.3857421875Q36.29296875 -4.0751953125 37.31494140625 -2.767578125Q38.3369140625 -1.4599609375 40.1142578125 -1.4599609375Q41.421875 -1.4599609375 42.40576171875 -2.02490234375Q43.3896484375 -2.58984375 43.7197265625 -3.5673828125L45.7255859375 -2.99609375Q45.1669921875 -1.421875 43.67529296875 -0.583984375Q42.18359375 0.25390625 40.1142578125 0.25390625Q37.1181640625 0.25390625 35.505859375 -1.6123046875Q33.8935546875 -3.478515625 33.8935546875 -6.95703125Q33.8935546875 -10.3466796875 35.47412109375 -12.16845703125Q37.0546875 -13.990234375 40.0380859375 -13.990234375Q43.021484375 -13.990234375 44.5576171875 -12.1748046875Q46.09375 -10.359375 46.09375 -6.6904296875V-6.3857421875ZM40.0634765625 -12.3017578125Q38.3623046875 -12.3017578125 37.3720703125 -11.19091796875Q36.3818359375 -10.080078125 36.318359375 -8.1376953125H43.732421875Q43.376953125 -12.3017578125 40.0634765625 -12.3017578125Z M49.9580078125 -6.880859375Q49.9580078125 -10.30859375 51.595703125 -12.1494140625Q53.2333984375 -13.990234375 56.3310546875 -13.990234375Q58.6416015625 -13.990234375 60.1396484375 -12.87939453125Q61.6376953125 -11.7685546875 61.9931640625 -9.8896484375L59.5556640625 -9.7119140625Q59.3525390625 -10.8671875 58.5400390625 -11.53369140625Q57.7275390625 -12.2001953125 56.2294921875 -12.2001953125Q54.2236328125 -12.2001953125 53.29052734375 -10.9560546875Q52.357421875 -9.7119140625 52.357421875 -6.931640625Q52.357421875 -4.11328125 53.29052734375 -2.81201171875Q54.2236328125 -1.5107421875 56.216796875 -1.5107421875Q57.587890625 -1.5107421875 58.4892578125 -2.18359375Q59.390625 -2.8564453125 59.6064453125 -4.240234375L62.0185546875 -4.087890625Q61.853515625 -2.869140625 61.09814453125 -1.87255859375Q60.3427734375 -0.8759765625 59.0986328125 -0.31103515625Q57.8544921875 0.25390625 56.318359375 0.25390625Q53.2080078125 0.25390625 51.5830078125 -1.57421875Q49.9580078125 -3.40234375 49.9580078125 -6.880859375Z M68.650390625 -5.890625V-7.921875H75.759765625V-5.890625Z M91.4560546875 -2.208984375Q90.833984375 -0.8759765625 89.8056640625 -0.27294921875Q88.77734375 0.330078125 87.2412109375 0.330078125Q84.6767578125 0.330078125 83.470703125 -1.4345703125Q82.2646484375 -3.19921875 82.2646484375 -6.75390625Q82.2646484375 -13.939453125 87.2412109375 -13.939453125Q88.77734375 -13.939453125 89.81201171875 -13.3935546875Q90.8466796875 -12.84765625 91.46875 -11.603515625H91.494140625L91.46875 -13.5205078125V-18.83984375H93.75390625V-2.8310546875Q93.75390625 -0.685546875 93.830078125 0.0H91.646484375Q91.595703125 -0.1904296875 91.5576171875 -0.9267578125Q91.51953125 -1.6630859375 91.51953125 -2.208984375ZM84.6259765625 -6.830078125Q84.6259765625 -4.01171875 85.38134765625 -2.72314453125Q86.13671875 -1.4345703125 87.837890625 -1.4345703125Q89.69140625 -1.4345703125 90.580078125 -2.77392578125Q91.46875 -4.11328125 91.46875 -7.033203125Q91.46875 -9.7626953125 90.61181640625 -11.0068359375Q89.7548828125 -12.2509765625 87.86328125 -12.2509765625Q86.1494140625 -12.2509765625 85.3876953125 -10.943359375Q84.6259765625 -9.6357421875 84.6259765625 -6.830078125Z M109.8818359375 -11.654296875Q108.4599609375 -11.8955078125 107.1904296875 -11.8955078125Q105.146484375 -11.8955078125 103.8896484375 -10.359375Q102.6328125 -8.8232421875 102.6328125 -6.44921875V0.0H100.34765625V-8.8994140625Q100.34765625 -9.8642578125 100.17626953125 -11.171875Q100.0048828125 -12.4794921875 99.6875 -13.736328125H101.8583984375Q102.3662109375 -11.984375 102.4677734375 -10.5625H102.53125Q103.166015625 -11.984375 103.775390625 -12.65087890625Q104.384765625 -13.3173828125 105.22265625 -13.65380859375Q106.060546875 -13.990234375 107.2666015625 -13.990234375Q108.5869140625 -13.990234375 109.8818359375 -13.7744140625Z M122.17578125 -1.802734375H127.0V0.0H114.533203125V-1.802734375H119.890625V-11.93359375H115.8408203125V-13.736328125H122.17578125ZM119.63671875 -16.40234375V-18.83984375H122.17578125V-16.40234375Z M137.8974609375 0.0H135.193359375L129.6962890625 -13.736328125H132.2607421875L135.6630859375 -4.798828125L135.87890625 -4.1259765625L136.5390625 -1.7900390625L136.9833984375 -3.275390625L137.478515625 -4.7734375L140.982421875 -13.736328125H143.5341796875Z M149.0107421875 -6.3857421875Q149.0107421875 -4.0751953125 150.03271484375 -2.767578125Q151.0546875 -1.4599609375 152.83203125 -1.4599609375Q154.1396484375 -1.4599609375 155.12353515625 -2.02490234375Q156.107421875 -2.58984375 156.4375 -3.5673828125L158.443359375 -2.99609375Q157.884765625 -1.421875 156.39306640625 -0.583984375Q154.9013671875 0.25390625 152.83203125 0.25390625Q149.8359375 0.25390625 148.2236328125 -1.6123046875Q146.611328125 -3.478515625 146.611328125 -6.95703125Q146.611328125 -10.3466796875 148.19189453125 -12.16845703125Q149.7724609375 -13.990234375 152.755859375 -13.990234375Q155.7392578125 -13.990234375 157.275390625 -12.1748046875Q158.8115234375 -10.359375 158.8115234375 -6.6904296875V-6.3857421875ZM152.78125 -12.3017578125Q151.080078125 -12.3017578125 150.08984375 -11.19091796875Q149.099609375 -10.080078125 149.0361328125 -8.1376953125H156.4501953125Q156.0947265625 -12.3017578125 152.78125 -12.3017578125Z M172.044921875 0.0V-8.8232421875Q172.044921875 -10.5498046875 171.37841796875 -11.3876953125Q170.7119140625 -12.2255859375 169.251953125 -12.2255859375Q167.677734375 -12.2255859375 166.66845703125 -11.07666015625Q165.6591796875 -9.927734375 165.6591796875 -7.9599609375V0.0H163.3740234375V-10.8037109375Q163.3740234375 -13.203125 163.2978515625 -13.736328125H165.4560546875Q165.46875 -13.6728515625 165.4814453125 -13.3935546875Q165.494140625 -13.1142578125 165.51318359375 -12.75244140625Q165.5322265625 -12.390625 165.5576171875 -11.3876953125H165.595703125Q166.9287109375 -13.990234375 169.98828125 -13.990234375Q172.1845703125 -13.990234375 173.263671875 -12.80322265625Q174.3427734375 -11.6162109375 174.3427734375 -9.1533203125V0.0Z M207.1572265625 -6.880859375Q207.1572265625 -3.4150390625 205.56396484375 -1.58056640625Q203.970703125 0.25390625 200.9619140625 0.25390625Q198.0166015625 0.25390625 196.44873046875 -1.599609375Q194.880859375 -3.453125 194.880859375 -6.880859375Q194.880859375 -10.4228515625 196.48681640625 -12.20654296875Q198.0927734375 -13.990234375 201.0380859375 -13.990234375Q204.1357421875 -13.990234375 205.646484375 -12.2255859375Q207.1572265625 -10.4609375 207.1572265625 -6.880859375ZM204.7578125 -6.880859375Q204.7578125 -9.6103515625 203.88818359375 -10.9560546875Q203.0185546875 -12.3017578125 201.076171875 -12.3017578125Q199.1083984375 -12.3017578125 198.1943359375 -10.9306640625Q197.2802734375 -9.5595703125 197.2802734375 -6.880859375Q197.2802734375 -4.21484375 198.1943359375 -2.82470703125Q199.1083984375 -1.4345703125 200.9365234375 -1.4345703125Q202.955078125 -1.4345703125 203.8564453125 -2.79296875Q204.7578125 -4.1513671875 204.7578125 -6.880859375Z M222.599609375 -11.654296875Q221.177734375 -11.8955078125 219.908203125 -11.8955078125Q217.8642578125 -11.8955078125 216.607421875 -10.359375Q215.3505859375 -8.8232421875 215.3505859375 -6.44921875V0.0H213.0654296875V-8.8994140625Q213.0654296875 -9.8642578125 212.89404296875 -11.171875Q212.72265625 -12.4794921875 212.4052734375 -13.736328125H214.576171875Q215.083984375 -11.984375 215.185546875 -10.5625H215.2490234375Q215.8837890625 -11.984375 216.4931640625 -12.65087890625Q217.1025390625 -13.3173828125 217.9404296875 -13.65380859375Q218.7783203125 -13.990234375 219.984375 -13.990234375Q221.3046875 -13.990234375 222.599609375 -13.7744140625Z M227.0859375 -6.880859375Q227.0859375 -10.30859375 228.7236328125 -12.1494140625Q230.361328125 -13.990234375 233.458984375 -13.990234375Q235.76953125 -13.990234375 237.267578125 -12.87939453125Q238.765625 -11.7685546875 239.12109375 -9.8896484375L236.68359375 -9.7119140625Q236.48046875 -10.8671875 235.66796875 -11.53369140625Q234.85546875 -12.2001953125 233.357421875 -12.2001953125Q231.3515625 -12.2001953125 230.41845703125 -10.9560546875Q229.4853515625 -9.7119140625 229.4853515625 -6.931640625Q229.4853515625 -4.11328125 230.41845703125 -2.81201171875Q231.3515625 -1.5107421875 233.3447265625 -1.5107421875Q234.7158203125 -1.5107421875 235.6171875 -2.18359375Q236.5185546875 -2.8564453125 236.734375 -4.240234375L239.146484375 -4.087890625Q238.9814453125 -2.869140625 238.22607421875 -1.87255859375Q237.470703125 -0.8759765625 236.2265625 -0.31103515625Q234.982421875 0.25390625 233.4462890625 0.25390625Q230.3359375 0.25390625 228.7109375 -1.57421875Q227.0859375 -3.40234375 227.0859375 -6.880859375Z M243.88671875 -18.83984375H246.1845703125V-13.888671875Q246.1845703125 -13.1396484375 246.0703125 -11.3876953125H246.1083984375Q247.44140625 -13.990234375 250.412109375 -13.990234375Q254.85546875 -13.990234375 254.85546875 -9.1533203125V0.0H252.5576171875V-8.8232421875Q252.5576171875 -10.5498046875 251.89111328125 -11.3876953125Q251.224609375 -12.2255859375 249.7646484375 -12.2255859375Q248.1904296875 -12.2255859375 247.18115234375 -11.07666015625Q246.171875 -9.927734375 246.171875 -7.9599609375V0.0H243.88671875Z M261.728515625 -6.3857421875Q261.728515625 -4.0751953125 262.75048828125 -2.767578125Q263.7724609375 -1.4599609375 265.5498046875 -1.4599609375Q266.857421875 -1.4599609375 267.84130859375 -2.02490234375Q268.8251953125 -2.58984375 269.1552734375 -3.5673828125L271.1611328125 -2.99609375Q270.6025390625 -1.421875 269.11083984375 -0.583984375Q267.619140625 0.25390625 265.5498046875 0.25390625Q262.5537109375 0.25390625 260.94140625 -1.6123046875Q259.3291015625 -3.478515625 259.3291015625 -6.95703125Q259.3291015625 -10.3466796875 260.90966796875 -12.16845703125Q262.490234375 -13.990234375 265.4736328125 -13.990234375Q268.45703125 -13.990234375 269.9931640625 -12.1748046875Q271.529296875 -10.359375 271.529296875 -6.6904296875V-6.3857421875ZM265.4990234375 -12.3017578125Q263.7978515625 -12.3017578125 262.8076171875 -11.19091796875Q261.8173828125 -10.080078125 261.75390625 -8.1376953125H269.16796875Q268.8125 -12.3017578125 265.4990234375 -12.3017578125Z M287.2001953125 -3.9228515625Q287.2001953125 -1.9677734375 285.72119140625 -0.85693359375Q284.2421875 0.25390625 281.626953125 0.25390625Q279.01171875 0.25390625 277.64697265625 -0.56494140625Q276.2822265625 -1.3837890625 275.86328125 -3.1484375L277.8818359375 -3.5419921875Q278.123046875 -2.4501953125 278.91650390625 -1.94873046875Q279.7099609375 -1.447265625 281.626953125 -1.447265625Q285.0546875 -1.447265625 285.0546875 -3.6181640625Q285.0546875 -4.4306640625 284.4326171875 -4.93212890625Q283.810546875 -5.43359375 282.5283203125 -5.7509765625Q279.1767578125 -6.576171875 278.275390625 -7.0458984375Q277.3740234375 -7.515625 276.8916015625 -8.22021484375Q276.4091796875 -8.9248046875 276.4091796875 -9.978515625Q276.4091796875 -11.8447265625 277.7548828125 -12.8984375Q279.1005859375 -13.9521484375 281.65234375 -13.9521484375Q283.88671875 -13.9521484375 285.2197265625 -13.10791015625Q286.552734375 -12.263671875 286.8828125 -10.6513671875L284.826171875 -10.3974609375Q284.6865234375 -11.3115234375 283.9248046875 -11.78125Q283.1630859375 -12.2509765625 281.65234375 -12.2509765625Q278.5419921875 -12.2509765625 278.5419921875 -10.333984375Q278.5419921875 -9.572265625 279.06884765625 -9.115234375Q279.595703125 -8.658203125 280.763671875 -8.37890625L282.2744140625 -7.9853515625Q284.34375 -7.4775390625 285.25146484375 -6.982421875Q286.1591796875 -6.4873046875 286.6796875 -5.74462890625Q287.2001953125 -5.001953125 287.2001953125 -3.9228515625Z M292.2578125 -11.93359375V-13.736328125H294.416015625L295.15234375 -17.31640625H296.67578125V-13.736328125H302.16015625V-11.93359375H296.67578125V-3.65625Q296.67578125 -2.6533203125 297.21533203125 -2.1708984375Q297.7548828125 -1.6884765625 298.986328125 -1.6884765625Q300.6875 -1.6884765625 302.7568359375 -2.1201171875V-0.380859375Q300.611328125 0.203125 298.50390625 0.203125Q296.447265625 0.203125 295.4189453125 -0.66650390625Q294.390625 -1.5361328125 294.390625 -3.4150390625V-11.93359375Z M319.21484375 -11.654296875Q317.79296875 -11.8955078125 316.5234375 -11.8955078125Q314.4794921875 -11.8955078125 313.22265625 -10.359375Q311.9658203125 -8.8232421875 311.9658203125 -6.44921875V0.0H309.6806640625V-8.8994140625Q309.6806640625 -9.8642578125 309.50927734375 -11.171875Q309.337890625 -12.4794921875 309.0205078125 -13.736328125H311.19140625Q311.69921875 -11.984375 311.80078125 -10.5625H311.8642578125Q312.4990234375 -11.984375 313.1083984375 -12.65087890625Q313.7177734375 -13.3173828125 314.5556640625 -13.65380859375Q315.3935546875 -13.990234375 316.599609375 -13.990234375Q317.919921875 -13.990234375 319.21484375 -13.7744140625Z M336.0283203125 -1.4091796875Q336.3583984375 -1.4091796875 336.77734375 -1.498046875V-0.076171875Q335.9140625 0.126953125 335.0126953125 0.126953125Q333.7431640625 0.126953125 333.16552734375 -0.53955078125Q332.587890625 -1.2060546875 332.51171875 -2.6279296875H332.435546875Q331.6103515625 -1.091796875 330.48681640625 -0.4189453125Q329.36328125 0.25390625 327.712890625 0.25390625Q325.70703125 0.25390625 324.69140625 -0.837890625Q323.67578125 -1.9296875 323.67578125 -3.833984375Q323.67578125 -8.2646484375 329.439453125 -8.328125L332.435546875 -8.37890625V-9.1279296875Q332.435546875 -10.791015625 331.7626953125 -11.52099609375Q331.08984375 -12.2509765625 329.6171875 -12.2509765625Q328.119140625 -12.2509765625 327.458984375 -11.7177734375Q326.798828125 -11.1845703125 326.671875 -10.0673828125L324.28515625 -10.283203125Q324.869140625 -13.990234375 329.6552734375 -13.990234375Q332.1943359375 -13.990234375 333.47021484375 -12.80322265625Q334.74609375 -11.6162109375 334.74609375 -9.369140625V-3.453125Q334.74609375 -2.4375 335.0126953125 -1.92333984375Q335.279296875 -1.4091796875 336.0283203125 -1.4091796875ZM328.296875 -1.4853515625Q329.515625 -1.4853515625 330.455078125 -2.0693359375Q331.39453125 -2.6533203125 331.9150390625 -3.630859375Q332.435546875 -4.6083984375 332.435546875 -5.6494140625V-6.779296875L330.0234375 -6.728515625Q328.525390625 -6.703125 327.73828125 -6.3984375Q326.951171875 -6.09375 326.51318359375 -5.46533203125Q326.0751953125 -4.8369140625 326.0751953125 -3.7958984375Q326.0751953125 -2.7548828125 326.64013671875 -2.1201171875Q327.205078125 -1.4853515625 328.296875 -1.4853515625Z M340.5654296875 -11.93359375V-13.736328125H342.7236328125L343.4599609375 -17.31640625H344.9833984375V-13.736328125H350.4677734375V-11.93359375H344.9833984375V-3.65625Q344.9833984375 -2.6533203125 345.52294921875 -2.1708984375Q346.0625 -1.6884765625 347.2939453125 -1.6884765625Q348.9951171875 -1.6884765625 351.064453125 -2.1201171875V-0.380859375Q348.9189453125 0.203125 346.8115234375 0.203125Q344.7548828125 0.203125 343.7265625 -0.66650390625Q342.6982421875 -1.5361328125 342.6982421875 -3.4150390625V-11.93359375Z M363.7138671875 -1.802734375H368.5380859375V0.0H356.0712890625V-1.802734375H361.4287109375V-11.93359375H357.37890625V-13.736328125H363.7138671875ZM361.1748046875 -16.40234375V-18.83984375H363.7138671875V-16.40234375Z M384.28515625 -6.880859375Q384.28515625 -3.4150390625 382.69189453125 -1.58056640625Q381.0986328125 0.25390625 378.08984375 0.25390625Q375.14453125 0.25390625 373.57666015625 -1.599609375Q372.0087890625 -3.453125 372.0087890625 -6.880859375Q372.0087890625 -10.4228515625 373.61474609375 -12.20654296875Q375.220703125 -13.990234375 378.166015625 -13.990234375Q381.263671875 -13.990234375 382.7744140625 -12.2255859375Q384.28515625 -10.4609375 384.28515625 -6.880859375ZM381.8857421875 -6.880859375Q381.8857421875 -9.6103515625 381.01611328125 -10.9560546875Q380.146484375 -12.3017578125 378.2041015625 -12.3017578125Q376.236328125 -12.3017578125 375.322265625 -10.9306640625Q374.408203125 -9.5595703125 374.408203125 -6.880859375Q374.408203125 -4.21484375 375.322265625 -2.82470703125Q376.236328125 -1.4345703125 378.064453125 -1.4345703125Q380.0830078125 -1.4345703125 380.984375 -2.79296875Q381.8857421875 -4.1513671875 381.8857421875 -6.880859375Z M397.48046875 0.0V-8.8232421875Q397.48046875 -10.5498046875 396.81396484375 -11.3876953125Q396.1474609375 -12.2255859375 394.6875 -12.2255859375Q393.11328125 -12.2255859375 392.10400390625 -11.07666015625Q391.0947265625 -9.927734375 391.0947265625 -7.9599609375V0.0H388.8095703125V-10.8037109375Q388.8095703125 -13.203125 388.7333984375 -13.736328125H390.8916015625Q390.904296875 -13.6728515625 390.9169921875 -13.3935546875Q390.9296875 -13.1142578125 390.94873046875 -12.75244140625Q390.9677734375 -12.390625 390.9931640625 -11.3876953125H391.03125Q392.3642578125 -13.990234375 395.423828125 -13.990234375Q397.6201171875 -13.990234375 398.69921875 -12.80322265625Q399.7783203125 -11.6162109375 399.7783203125 -9.1533203125V0.0Z M426.029296875 -11.93359375V0.0H423.744140625V-11.93359375H420.41796875V-13.736328125H423.744140625V-14.0537109375Q423.744140625 -16.65625 424.96923828125 -17.748046875Q426.1943359375 -18.83984375 429.05078125 -18.83984375Q429.96484375 -18.83984375 431.02490234375 -18.75732421875Q432.0849609375 -18.6748046875 432.6181640625 -18.5732421875V-16.732421875Q432.2373046875 -16.7958984375 431.07568359375 -16.8720703125Q429.9140625 -16.9482421875 429.3173828125 -16.9482421875Q427.9970703125 -16.9482421875 427.32421875 -16.65625Q426.6513671875 -16.3642578125 426.34033203125 -15.7041015625Q426.029296875 -15.0439453125 426.029296875 -13.86328125V-13.736328125H432.2626953125V-11.93359375Z M448.6953125 -6.880859375Q448.6953125 -3.4150390625 447.10205078125 -1.58056640625Q445.5087890625 0.25390625 442.5 0.25390625Q439.5546875 0.25390625 437.98681640625 -1.599609375Q436.4189453125 -3.453125 436.4189453125 -6.880859375Q436.4189453125 -10.4228515625 438.02490234375 -12.20654296875Q439.630859375 -13.990234375 442.576171875 -13.990234375Q445.673828125 -13.990234375 447.1845703125 -12.2255859375Q448.6953125 -10.4609375 448.6953125 -6.880859375ZM446.2958984375 -6.880859375Q446.2958984375 -9.6103515625 445.42626953125 -10.9560546875Q444.556640625 -12.3017578125 442.6142578125 -12.3017578125Q440.646484375 -12.3017578125 439.732421875 -10.9306640625Q438.818359375 -9.5595703125 438.818359375 -6.880859375Q438.818359375 -4.21484375 439.732421875 -2.82470703125Q440.646484375 -1.4345703125 442.474609375 -1.4345703125Q444.4931640625 -1.4345703125 445.39453125 -2.79296875Q446.2958984375 -4.1513671875 446.2958984375 -6.880859375Z M464.1376953125 -11.654296875Q462.7158203125 -11.8955078125 461.4462890625 -11.8955078125Q459.40234375 -11.8955078125 458.1455078125 -10.359375Q456.888671875 -8.8232421875 456.888671875 -6.44921875V0.0H454.603515625V-8.8994140625Q454.603515625 -9.8642578125 454.43212890625 -11.171875Q454.2607421875 -12.4794921875 453.943359375 -13.736328125H456.1142578125Q456.6220703125 -11.984375 456.7236328125 -10.5625H456.787109375Q457.421875 -11.984375 458.03125 -12.65087890625Q458.640625 -13.3173828125 459.478515625 -13.65380859375Q460.31640625 -13.990234375 461.5224609375 -13.990234375Q462.8427734375 -13.990234375 464.1376953125 -13.7744140625Z M486.783203125 5.3955078125Q485.84375 5.3955078125 485.208984375 5.255859375V3.5419921875Q485.69140625 3.6181640625 486.275390625 3.6181640625Q487.2783203125 3.6181640625 488.16064453125 2.869140625Q489.04296875 2.1201171875 489.65234375 0.482421875L489.880859375 -0.1396484375L483.9140625 -13.736328125H486.3515625L489.703125 -5.5859375Q490.8583984375 -2.7421875 490.947265625 -2.361328125L491.4677734375 -3.7578125L495.4033203125 -13.736328125H497.8154296875L492.0263671875 0.0Q490.896484375 2.9833984375 489.68408203125 4.189453125Q488.4716796875 5.3955078125 486.783203125 5.3955078125Z M513.10546875 -6.880859375Q513.10546875 -3.4150390625 511.51220703125 -1.58056640625Q509.9189453125 0.25390625 506.91015625 0.25390625Q503.96484375 0.25390625 502.39697265625 -1.599609375Q500.8291015625 -3.453125 500.8291015625 -6.880859375Q500.8291015625 -10.4228515625 502.43505859375 -12.20654296875Q504.041015625 -13.990234375 506.986328125 -13.990234375Q510.083984375 -13.990234375 511.5947265625 -12.2255859375Q513.10546875 -10.4609375 513.10546875 -6.880859375ZM510.7060546875 -6.880859375Q510.7060546875 -9.6103515625 509.83642578125 -10.9560546875Q508.966796875 -12.3017578125 507.0244140625 -12.3017578125Q505.056640625 -12.3017578125 504.142578125 -10.9306640625Q503.228515625 -9.5595703125 503.228515625 -6.880859375Q503.228515625 -4.21484375 504.142578125 -2.82470703125Q505.056640625 -1.4345703125 506.884765625 -1.4345703125Q508.9033203125 -1.4345703125 509.8046875 -2.79296875Q510.7060546875 -4.1513671875 510.7060546875 -6.880859375Z M519.9150390625 -13.736328125V-5.02734375Q519.9150390625 -3.046875 520.537109375 -2.27880859375Q521.1591796875 -1.5107421875 522.7587890625 -1.5107421875Q524.396484375 -1.5107421875 525.3486328125 -2.6279296875Q526.30078125 -3.7451171875 526.30078125 -5.7763671875V-13.736328125H528.5986328125V-2.9326171875Q528.5986328125 -0.533203125 528.6748046875 0.0H526.5166015625Q526.50390625 -0.0634765625 526.4912109375 -0.3427734375Q526.478515625 -0.6220703125 526.45947265625 -0.98388671875Q526.4404296875 -1.345703125 526.4150390625 -2.3486328125H526.376953125Q525.58984375 -0.9267578125 524.55517578125 -0.33642578125Q523.5205078125 0.25390625 521.984375 0.25390625Q519.724609375 0.25390625 518.67724609375 -0.86962890625Q517.6298828125 -1.9931640625 517.6298828125 -4.5830078125V-13.736328125Z M544.650390625 -11.654296875Q543.228515625 -11.8955078125 541.958984375 -11.8955078125Q539.9150390625 -11.8955078125 538.658203125 -10.359375Q537.4013671875 -8.8232421875 537.4013671875 -6.44921875V0.0H535.1162109375V-8.8994140625Q535.1162109375 -9.8642578125 534.94482421875 -11.171875Q534.7734375 -12.4794921875 534.4560546875 -13.736328125H536.626953125Q537.134765625 -11.984375 537.236328125 -10.5625H537.2998046875Q537.9345703125 -11.984375 538.5439453125 -12.65087890625Q539.1533203125 -13.3173828125 539.9912109375 -13.65380859375Q540.8291015625 -13.990234375 542.03515625 -13.990234375Q543.35546875 -13.990234375 544.650390625 -13.7744140625Z M565.2392578125 -6.880859375Q565.2392578125 -10.30859375 566.876953125 -12.1494140625Q568.5146484375 -13.990234375 571.6123046875 -13.990234375Q573.9228515625 -13.990234375 575.4208984375 -12.87939453125Q576.9189453125 -11.7685546875 577.2744140625 -9.8896484375L574.8369140625 -9.7119140625Q574.6337890625 -10.8671875 573.8212890625 -11.53369140625Q573.0087890625 -12.2001953125 571.5107421875 -12.2001953125Q569.5048828125 -12.2001953125 568.57177734375 -10.9560546875Q567.638671875 -9.7119140625 567.638671875 -6.931640625Q567.638671875 -4.11328125 568.57177734375 -2.81201171875Q569.5048828125 -1.5107421875 571.498046875 -1.5107421875Q572.869140625 -1.5107421875 573.7705078125 -2.18359375Q574.671875 -2.8564453125 574.8876953125 -4.240234375L577.2998046875 -4.087890625Q577.134765625 -2.869140625 576.37939453125 -1.87255859375Q575.6240234375 -0.8759765625 574.3798828125 -0.31103515625Q573.1357421875 0.25390625 571.599609375 0.25390625Q568.4892578125 0.25390625 566.8642578125 -1.57421875Q565.2392578125 -3.40234375 565.2392578125 -6.880859375Z M593.6181640625 -6.880859375Q593.6181640625 -3.4150390625 592.02490234375 -1.58056640625Q590.431640625 0.25390625 587.4228515625 0.25390625Q584.4775390625 0.25390625 582.90966796875 -1.599609375Q581.341796875 -3.453125 581.341796875 -6.880859375Q581.341796875 -10.4228515625 582.94775390625 -12.20654296875Q584.5537109375 -13.990234375 587.4990234375 -13.990234375Q590.5966796875 -13.990234375 592.107421875 -12.2255859375Q593.6181640625 -10.4609375 593.6181640625 -6.880859375ZM591.21875 -6.880859375Q591.21875 -9.6103515625 590.34912109375 -10.9560546875Q589.4794921875 -12.3017578125 587.537109375 -12.3017578125Q585.5693359375 -12.3017578125 584.6552734375 -10.9306640625Q583.7412109375 -9.5595703125 583.7412109375 -6.880859375Q583.7412109375 -4.21484375 584.6552734375 -2.82470703125Q585.5693359375 -1.4345703125 587.3974609375 -1.4345703125Q589.416015625 -1.4345703125 590.3173828125 -2.79296875Q591.21875 -4.1513671875 591.21875 -6.880859375Z M606.7373046875 -2.208984375Q606.115234375 -0.8759765625 605.0869140625 -0.27294921875Q604.05859375 0.330078125 602.5224609375 0.330078125Q599.9580078125 0.330078125 598.751953125 -1.4345703125Q597.5458984375 -3.19921875 597.5458984375 -6.75390625Q597.5458984375 -13.939453125 602.5224609375 -13.939453125Q604.05859375 -13.939453125 605.09326171875 -13.3935546875Q606.1279296875 -12.84765625 606.75 -11.603515625H606.775390625L606.75 -13.5205078125V-18.83984375H609.03515625V-2.8310546875Q609.03515625 -0.685546875 609.111328125 0.0H606.927734375Q606.876953125 -0.1904296875 606.8388671875 -0.9267578125Q606.80078125 -1.6630859375 606.80078125 -2.208984375ZM599.9072265625 -6.830078125Q599.9072265625 -4.01171875 600.66259765625 -2.72314453125Q601.41796875 -1.4345703125 603.119140625 -1.4345703125Q604.97265625 -1.4345703125 605.861328125 -2.77392578125Q606.75 -4.11328125 606.75 -7.033203125Q606.75 -9.7626953125 605.89306640625 -11.0068359375Q605.0361328125 -12.2509765625 603.14453125 -12.2509765625Q601.4306640625 -12.2509765625 600.6689453125 -10.943359375Q599.9072265625 -9.6357421875 599.9072265625 -6.830078125Z M621.3544921875 -1.802734375H626.1787109375V0.0H613.7119140625V-1.802734375H619.0693359375V-11.93359375H615.01953125V-13.736328125H621.3544921875ZM618.8154296875 -16.40234375V-18.83984375H621.3544921875V-16.40234375Z M639.0185546875 0.0V-8.8232421875Q639.0185546875 -10.5498046875 638.35205078125 -11.3876953125Q637.685546875 -12.2255859375 636.2255859375 -12.2255859375Q634.6513671875 -12.2255859375 633.64208984375 -11.07666015625Q632.6328125 -9.927734375 632.6328125 -7.9599609375V0.0H630.34765625V-10.8037109375Q630.34765625 -13.203125 630.271484375 -13.736328125H632.4296875Q632.4423828125 -13.6728515625 632.455078125 -13.3935546875Q632.4677734375 -13.1142578125 632.48681640625 -12.75244140625Q632.505859375 -12.390625 632.53125 -11.3876953125H632.5693359375Q633.90234375 -13.990234375 636.9619140625 -13.990234375Q639.158203125 -13.990234375 640.2373046875 -12.80322265625Q641.31640625 -11.6162109375 641.31640625 -9.1533203125V0.0Z M651.9091796875 5.3828125Q649.7763671875 5.3828125 648.4814453125 4.5068359375Q647.1865234375 3.630859375 646.8310546875 1.9931640625L649.1669921875 1.67578125Q649.3828125 2.6279296875 650.10009765625 3.14208984375Q650.8173828125 3.65625 651.9853515625 3.65625Q655.1337890625 3.65625 655.1337890625 -0.3427734375V-2.8056640625H655.1083984375Q654.486328125 -1.498046875 653.3818359375 -0.8251953125Q652.27734375 -0.15234375 650.75390625 -0.15234375Q648.240234375 -0.15234375 647.07861328125 -1.79638671875Q645.9169921875 -3.4404296875 645.9169921875 -6.9697265625Q645.9169921875 -10.5625 647.1611328125 -12.25732421875Q648.4052734375 -13.9521484375 650.9951171875 -13.9521484375Q652.4296875 -13.9521484375 653.48974609375 -13.28564453125Q654.5498046875 -12.619140625 655.12109375 -11.3876953125H655.1591796875Q655.1591796875 -11.7685546875 655.2099609375 -12.67626953125Q655.2607421875 -13.583984375 655.3115234375 -13.736328125H657.482421875Q657.40625 -13.05078125 657.40625 -10.892578125V-0.40625Q657.40625 2.4755859375 656.060546875 3.92919921875Q654.71484375 5.3828125 651.9091796875 5.3828125ZM655.1337890625 -6.9951171875Q655.1337890625 -9.4453125 654.181640625 -10.84814453125Q653.2294921875 -12.2509765625 651.56640625 -12.2509765625Q649.8271484375 -12.2509765625 649.052734375 -11.03857421875Q648.2783203125 -9.826171875 648.2783203125 -6.9951171875Q648.2783203125 -5.078125 648.60205078125 -3.96728515625Q648.92578125 -2.8564453125 649.611328125 -2.3486328125Q650.296875 -1.8408203125 651.5283203125 -1.8408203125Q652.607421875 -1.8408203125 653.42626953125 -2.44384765625Q654.2451171875 -3.046875 654.689453125 -4.20849609375Q655.1337890625 -5.3701171875 655.1337890625 -6.9951171875Z M690.2841796875 -1.4091796875Q690.6142578125 -1.4091796875 691.033203125 -1.498046875V-0.076171875Q690.169921875 0.126953125 689.2685546875 0.126953125Q687.9990234375 0.126953125 687.42138671875 -0.53955078125Q686.84375 -1.2060546875 686.767578125 -2.6279296875H686.69140625Q685.8662109375 -1.091796875 684.74267578125 -0.4189453125Q683.619140625 0.25390625 681.96875 0.25390625Q679.962890625 0.25390625 678.947265625 -0.837890625Q677.931640625 -1.9296875 677.931640625 -3.833984375Q677.931640625 -8.2646484375 683.6953125 -8.328125L686.69140625 -8.37890625V-9.1279296875Q686.69140625 -10.791015625 686.0185546875 -11.52099609375Q685.345703125 -12.2509765625 683.873046875 -12.2509765625Q682.375 -12.2509765625 681.71484375 -11.7177734375Q681.0546875 -11.1845703125 680.927734375 -10.0673828125L678.541015625 -10.283203125Q679.125 -13.990234375 683.9111328125 -13.990234375Q686.4501953125 -13.990234375 687.72607421875 -12.80322265625Q689.001953125 -11.6162109375 689.001953125 -9.369140625V-3.453125Q689.001953125 -2.4375 689.2685546875 -1.92333984375Q689.53515625 -1.4091796875 690.2841796875 -1.4091796875ZM682.552734375 -1.4853515625Q683.771484375 -1.4853515625 684.7109375 -2.0693359375Q685.650390625 -2.6533203125 686.1708984375 -3.630859375Q686.69140625 -4.6083984375 686.69140625 -5.6494140625V-6.779296875L684.279296875 -6.728515625Q682.78125 -6.703125 681.994140625 -6.3984375Q681.20703125 -6.09375 680.76904296875 -5.46533203125Q680.3310546875 -4.8369140625 680.3310546875 -3.7958984375Q680.3310546875 -2.7548828125 680.89599609375 -2.1201171875Q681.4609375 -1.4853515625 682.552734375 -1.4853515625Z M700.216796875 5.3828125Q698.083984375 5.3828125 696.7890625 4.5068359375Q695.494140625 3.630859375 695.138671875 1.9931640625L697.474609375 1.67578125Q697.6904296875 2.6279296875 698.40771484375 3.14208984375Q699.125 3.65625 700.29296875 3.65625Q703.44140625 3.65625 703.44140625 -0.3427734375V-2.8056640625H703.416015625Q702.7939453125 -1.498046875 701.689453125 -0.8251953125Q700.5849609375 -0.15234375 699.0615234375 -0.15234375Q696.5478515625 -0.15234375 695.38623046875 -1.79638671875Q694.224609375 -3.4404296875 694.224609375 -6.9697265625Q694.224609375 -10.5625 695.46875 -12.25732421875Q696.712890625 -13.9521484375 699.302734375 -13.9521484375Q700.7373046875 -13.9521484375 701.79736328125 -13.28564453125Q702.857421875 -12.619140625 703.4287109375 -11.3876953125H703.466796875Q703.466796875 -11.7685546875 703.517578125 -12.67626953125Q703.568359375 -13.583984375 703.619140625 -13.736328125H705.7900390625Q705.7138671875 -13.05078125 705.7138671875 -10.892578125V-0.40625Q705.7138671875 2.4755859375 704.3681640625 3.92919921875Q703.0224609375 5.3828125 700.216796875 5.3828125ZM703.44140625 -6.9951171875Q703.44140625 -9.4453125 702.4892578125 -10.84814453125Q701.537109375 -12.2509765625 699.8740234375 -12.2509765625Q698.134765625 -12.2509765625 697.3603515625 -11.03857421875Q696.5859375 -9.826171875 696.5859375 -6.9951171875Q696.5859375 -5.078125 696.90966796875 -3.96728515625Q697.2333984375 -2.8564453125 697.9189453125 -2.3486328125Q698.6044921875 -1.8408203125 699.8359375 -1.8408203125Q700.9150390625 -1.8408203125 701.73388671875 -2.44384765625Q702.552734375 -3.046875 702.9970703125 -4.20849609375Q703.44140625 -5.3701171875 703.44140625 -6.9951171875Z M712.599609375 -6.3857421875Q712.599609375 -4.0751953125 713.62158203125 -2.767578125Q714.6435546875 -1.4599609375 716.4208984375 -1.4599609375Q717.728515625 -1.4599609375 718.71240234375 -2.02490234375Q719.6962890625 -2.58984375 720.0263671875 -3.5673828125L722.0322265625 -2.99609375Q721.4736328125 -1.421875 719.98193359375 -0.583984375Q718.490234375 0.25390625 716.4208984375 0.25390625Q713.4248046875 0.25390625 711.8125 -1.6123046875Q710.2001953125 -3.478515625 710.2001953125 -6.95703125Q710.2001953125 -10.3466796875 711.78076171875 -12.16845703125Q713.361328125 -13.990234375 716.3447265625 -13.990234375Q719.328125 -13.990234375 720.8642578125 -12.1748046875Q722.400390625 -10.359375 722.400390625 -6.6904296875V-6.3857421875ZM716.3701171875 -12.3017578125Q714.6689453125 -12.3017578125 713.6787109375 -11.19091796875Q712.6884765625 -10.080078125 712.625 -8.1376953125H720.0390625Q719.68359375 -12.3017578125 716.3701171875 -12.3017578125Z M735.6337890625 0.0V-8.8232421875Q735.6337890625 -10.5498046875 734.96728515625 -11.3876953125Q734.30078125 -12.2255859375 732.8408203125 -12.2255859375Q731.2666015625 -12.2255859375 730.25732421875 -11.07666015625Q729.248046875 -9.927734375 729.248046875 -7.9599609375V0.0H726.962890625V-10.8037109375Q726.962890625 -13.203125 726.88671875 -13.736328125H729.044921875Q729.0576171875 -13.6728515625 729.0703125 -13.3935546875Q729.0830078125 -13.1142578125 729.10205078125 -12.75244140625Q729.12109375 -12.390625 729.146484375 -11.3876953125H729.1845703125Q730.517578125 -13.990234375 733.5771484375 -13.990234375Q735.7734375 -13.990234375 736.8525390625 -12.80322265625Q737.931640625 -11.6162109375 737.931640625 -9.1533203125V0.0Z M743.12890625 -11.93359375V-13.736328125H745.287109375L746.0234375 -17.31640625H747.546875V-13.736328125H753.03125V-11.93359375H747.546875V-3.65625Q747.546875 -2.6533203125 748.08642578125 -2.1708984375Q748.6259765625 -1.6884765625 749.857421875 -1.6884765625Q751.55859375 -1.6884765625 753.6279296875 -2.1201171875V-0.380859375Q751.482421875 0.203125 749.375 0.203125Q747.318359375 0.203125 746.2900390625 -0.66650390625Q745.26171875 -1.5361328125 745.26171875 -3.4150390625V-11.93359375Z M770.2763671875 -3.9228515625Q770.2763671875 -1.9677734375 768.79736328125 -0.85693359375Q767.318359375 0.25390625 764.703125 0.25390625Q762.087890625 0.25390625 760.72314453125 -0.56494140625Q759.3583984375 -1.3837890625 758.939453125 -3.1484375L760.9580078125 -3.5419921875Q761.19921875 -2.4501953125 761.99267578125 -1.94873046875Q762.7861328125 -1.447265625 764.703125 -1.447265625Q768.130859375 -1.447265625 768.130859375 -3.6181640625Q768.130859375 -4.4306640625 767.5087890625 -4.93212890625Q766.88671875 -5.43359375 765.6044921875 -5.7509765625Q762.2529296875 -6.576171875 761.3515625 -7.0458984375Q760.4501953125 -7.515625 759.9677734375 -8.22021484375Q759.4853515625 -8.9248046875 759.4853515625 -9.978515625Q759.4853515625 -11.8447265625 760.8310546875 -12.8984375Q762.1767578125 -13.9521484375 764.728515625 -13.9521484375Q766.962890625 -13.9521484375 768.2958984375 -13.10791015625Q769.62890625 -12.263671875 769.958984375 -10.6513671875L767.90234375 -10.3974609375Q767.7626953125 -11.3115234375 767.0009765625 -11.78125Q766.2392578125 -12.2509765625 764.728515625 -12.2509765625Q761.6181640625 -12.2509765625 761.6181640625 -10.333984375Q761.6181640625 -9.572265625 762.14501953125 -9.115234375Q762.671875 -8.658203125 763.83984375 -8.37890625L765.3505859375 -7.9853515625Q767.419921875 -7.4775390625 768.32763671875 -6.982421875Q769.2353515625 -6.4873046875 769.755859375 -5.74462890625Q770.2763671875 -5.001953125 770.2763671875 -3.9228515625Z M779.21875 0.0V-3.7958984375H782.2021484375V0.0Z" fill="#5FA8BE"/></g>
</svg>
